<?xml version="1.0" encoding="UTF-8" standalone="no"?>
<svg
   height="128px"
   viewBox="0 0 128 128"
   width="128px"
   version="1.1"
   id="svg212"
   sodipodi:docname="cozy.svg"
   xml:space="preserve"
   inkscape:version="1.2.2 (b0a8486541, 2022-12-01)"
   xmlns:inkscape="http://www.inkscape.org/namespaces/inkscape"
   xmlns:sodipodi="http://sodipodi.sourceforge.net/DTD/sodipodi-0.dtd"
   xmlns:xlink="http://www.w3.org/1999/xlink"
   xmlns="http://www.w3.org/2000/svg"
   xmlns:svg="http://www.w3.org/2000/svg"><defs
     id="defs216"><linearGradient
       inkscape:collect="always"
       id="linearGradient1676"><stop
         style="stop-color:#121212;stop-opacity:1;"
         offset="0.29846859"
         id="stop1672" /><stop
         style="stop-color:#100e0e;stop-opacity:0;"
         offset="1"
         id="stop1674" /></linearGradient><linearGradient
       inkscape:collect="always"
       xlink:href="#linearGradient1676"
       id="linearGradient1678"
       x1="54.273488"
       y1="79.066527"
       x2="73.715835"
       y2="79.066527"
       gradientUnits="userSpaceOnUse"
       gradientTransform="matrix(1.2305575,0,0,1.0615969,-14.25174,-5.1007219)" /></defs><sodipodi:namedview
     id="namedview214"
     pagecolor="#ffffff"
     bordercolor="#666666"
     borderopacity="1.0"
     inkscape:showpageshadow="2"
     inkscape:pageopacity="0.0"
     inkscape:pagecheckerboard="0"
     inkscape:deskcolor="#d1d1d1"
     showgrid="false"
     inkscape:zoom="5.5391231"
     inkscape:cx="51.542454"
     inkscape:cy="53.438061"
     inkscape:window-width="1920"
     inkscape:window-height="1016"
     inkscape:window-x="0"
     inkscape:window-y="0"
     inkscape:window-maximized="1"
     inkscape:current-layer="svg212" /><linearGradient
     id="a"
     gradientUnits="userSpaceOnUse"><stop
       offset="0"
       stop-color="#c0bfbc"
       id="stop2" /><stop
       offset="0.846154"
       stop-color="#c0bfbc"
       id="stop4" /><stop
       offset="0.923077"
       stop-color="#deddda"
       id="stop6" /><stop
       offset="1"
       stop-color="#c0bfbc"
       id="stop8" /></linearGradient><linearGradient
     id="b"
     x1="64"
     x2="116"
     xlink:href="#a"
     y1="75"
     y2="75" /><linearGradient
     id="c"
     gradientUnits="userSpaceOnUse"
     x1="40"
     x2="40"
     y1="27.99999225"
     y2="140.5165025"><stop
       offset="0"
       stop-color="#edece9"
       id="stop12" /><stop
       offset="1"
       stop-color="#ffffff"
       id="stop14" /></linearGradient><linearGradient
     id="d"
     gradientTransform="matrix(-1 0 0 1 128 -172)"
     x1="64"
     x2="116"
     xlink:href="#a"
     y1="247"
     y2="247" /><linearGradient
     id="e"
     gradientUnits="userSpaceOnUse"><stop
       offset="0"
       stop-color="#f6f5f4"
       id="stop18" /><stop
       offset="0.5"
       stop-color="#ffffff"
       id="stop20" /><stop
       offset="1"
       stop-color="#dddbd8"
       id="stop22" /></linearGradient><linearGradient
     id="f"
     gradientTransform="matrix(-0.25 0 0 0.25 168 25)"
     x1="384"
     x2="448"
     xlink:href="#e"
     y1="120"
     y2="120" /><linearGradient
     id="g"
     x1="48"
     x2="64"
     xlink:href="#e"
     y1="55"
     y2="55" /><linearGradient
     id="h"
     gradientUnits="userSpaceOnUse"
     x1="29.99999709958"
     x2="97.99999061106"
     y1="29.99997519474"
     y2="29.99997519474"><stop
       offset="0"
       stop-color="#c64600"
       id="stop27" /><stop
       offset="0.0574987"
       stop-color="#c64600"
       stop-opacity="0.988235"
       id="stop29" /><stop
       offset="0.102995"
       stop-color="#ff7f3a"
       stop-opacity="0.980392"
       id="stop31" /><stop
       offset="0.148718"
       stop-color="#c64600"
       stop-opacity="0.972549"
       id="stop33" /><stop
       offset="0.411765"
       stop-color="#872f00"
       stop-opacity="0.913725"
       id="stop35" /><stop
       offset="0.864825"
       stop-color="#c64600"
       stop-opacity="0.854902"
       id="stop37" /><stop
       offset="0.882353"
       stop-color="#ff7429"
       stop-opacity="0.85098"
       id="stop39" /><stop
       offset="0.920967"
       stop-color="#682a09"
       stop-opacity="0.847059"
       id="stop41" /><stop
       offset="1"
       stop-color="#c64600"
       stop-opacity="0.839684"
       id="stop43" /></linearGradient><linearGradient
     id="i"
     gradientUnits="userSpaceOnUse"><stop
       offset="0"
       stop-color="#ffa348"
       id="stop46" /><stop
       offset="0.649243"
       stop-color="#e66100"
       id="stop48" /><stop
       offset="1"
       stop-color="#ffa348"
       id="stop50" /></linearGradient><radialGradient
     id="j"
     cx="134.309021"
     cy="55.279427"
     gradientTransform="matrix(0.548623 0 0 0.519592 -41.757464 31.243078)"
     r="58.46003"
     xlink:href="#i" /><linearGradient
     id="k"
     gradientUnits="userSpaceOnUse"><stop
       offset="0"
       stop-color="#3d3846"
       id="stop54" /><stop
       offset="0.697269"
       stop-color="#9a9996"
       id="stop56" /><stop
       offset="1"
       stop-color="#77767b"
       id="stop58" /></linearGradient><linearGradient
     id="l"
     x1="43.27622576182"
     x2="43.27622576182"
     xlink:href="#k"
     y1="80.06832972089"
     y2="47.87438590952" /><filter
     id="m"
     height="1"
     width="1"
     x="0"
     y="0"><feColorMatrix
       in="SourceGraphic"
       type="matrix"
       values="0 0 0 0 1 0 0 0 0 1 0 0 0 0 1 0 0 0 1 0"
       id="feColorMatrix62" /></filter><mask
     id="n"><g
       filter="url(#m)"
       id="g67"><rect
         fill-opacity="0.187"
         height="128"
         width="128"
         id="rect65" /></g></mask><radialGradient
     id="o"
     cx="197.74678"
     cy="69.253197"
     gradientTransform="matrix(37.758633 0 0 19.739206 -7375.666016 -1304.003174)"
     gradientUnits="userSpaceOnUse"
     r="2.50025"><stop
       offset="0"
       stop-color="#ffffff"
       stop-opacity="0.987395"
       id="stop70" /><stop
       offset="1"
       stop-color="#ffffff"
       stop-opacity="0"
       id="stop72" /></radialGradient><clipPath
     id="p"><rect
       height="152"
       width="192"
       id="rect75" /></clipPath><radialGradient
     id="q"
     cx="134.309021"
     cy="55.279427"
     gradientTransform="matrix(-0.548623 0 0 0.519592 169.842184 31.243076)"
     r="58.46003"
     xlink:href="#i" /><linearGradient
     id="r"
     gradientTransform="matrix(-0.217853 0 0 0.217853 125.599719 -6.77617)"
     x1="187.241974"
     x2="187.241974"
     xlink:href="#k"
     y1="398.638062"
     y2="250.859772" /><mask
     id="s"><g
       filter="url(#m)"
       id="g82"><rect
         fill-opacity="0.187"
         height="128"
         width="128"
         id="rect80" /></g></mask><clipPath
     id="t"><rect
       height="152"
       width="192"
       id="rect85" /></clipPath><mask
     id="u"><g
       filter="url(#m)"
       id="g90"><rect
         fill-opacity="0.1"
         height="128"
         width="128"
         id="rect88" /></g></mask><clipPath
     id="v"><rect
       height="152"
       width="192"
       id="rect93" /></clipPath><radialGradient
     id="w"
     cx="95.94432577866"
     cy="80.95407576309"
     gradientUnits="userSpaceOnUse"
     r="5.031738"><stop
       offset="0"
       stop-color="#c64600"
       id="stop96" /><stop
       offset="1"
       stop-color="#c64600"
       stop-opacity="0"
       id="stop98" /></radialGradient><linearGradient
     id="x"
     gradientUnits="userSpaceOnUse"
     x1="45.999973"
     x2="57.999975"
     y1="98.000041"
     y2="98.000041"
     gradientTransform="matrix(1.1019952,0,0,-0.96718763,6.0837054,184.69752)"><stop
       offset="0"
       stop-color="#c0bfbc"
       id="stop101" /><stop
       offset="0.244984"
       stop-color="#e1e0df"
       id="stop103" /><stop
       offset="0.85872"
       stop-color="#82807a"
       id="stop105" /><stop
       offset="1"
       stop-color="#c0bfbc"
       id="stop107" /></linearGradient><mask
     id="y"><g
       filter="url(#m)"
       id="g112"><rect
         fill-opacity="0.56294"
         height="128"
         width="128"
         id="rect110" /></g></mask><clipPath
     id="z"><rect
       height="152"
       width="192"
       id="rect115" /></clipPath><path
     class="st0"
     d="m 64.220823,27.525501 c -4.815383,-0.04955 -9.197481,1.800449 -12.390355,4.837865 -3.189206,3.033926 -5.185517,7.251772 -5.236516,11.930768 -0.01315,1.206798 0.104735,2.386717 0.339295,3.525486 3.670217,3.150391 10.033461,4.472219 16.513766,4.383627 6.68742,-0.09705 13.416605,-1.693507 17.462518,-4.355123 0.08777,-0.05556 0.171953,-0.114684 0.256129,-0.173816 0.192267,-0.979098 0.297686,-1.987321 0.308915,-3.017689 0.051,-4.678991 -1.852935,-8.936981 -4.975295,-12.035857 -3.125954,-3.102443 -7.463076,-5.045706 -12.278456,-5.09526 z m -2.364609,74.660949 c 0.02809,1.0908 0.259964,2.1413 0.670133,3.16188 0.823807,2.05885 0.925617,2.38104 1.751219,0.27564 0.42969,-1.10014 0.699936,-2.23726 0.781661,-3.40453 1.31149,-0.0324 2.280744,-0.32594 3.119188,-0.94192 0.860371,-0.62991 1.462136,-1.523601 2.107703,-2.773306 2.103782,-4.082651 4.284106,-23.184143 5.641318,-35.077194 0.34921,-3.049038 0.638601,-5.608144 0.876107,-7.405521 1.245354,-1.296459 2.278483,-2.782145 3.058943,-4.411595 -4.525149,1.979107 -10.468675,3.135464 -16.33514,3.219786 -5.419678,0.07833 -10.814905,-0.753585 -15.050421,-2.688744 0.725752,1.390857 1.641653,2.663685 2.715201,3.800496 0.168246,1.558043 0.38706,3.808305 0.655077,6.542547 1.162749,11.947216 3.187135,32.810629 4.902992,35.99737 0.612327,1.135623 1.198412,2.009771 2.005028,2.646251 0.828258,0.65082 1.797741,1.00664 3.100991,1.05884 z M 73.750613,58.548644 c -0.15613,1.328849 -0.332917,2.886864 -0.52944,4.589377 -1.337013,11.70622 -3.47774,30.504602 -5.373681,34.18003 -0.471163,0.909173 -0.859235,1.522737 -1.309547,1.853374 -0.391756,0.288885 -0.948811,0.413719 -1.813125,0.404809 l -2.57111,-0.02642 c -0.777128,-0.0083 -1.294784,-0.165065 -1.680069,-0.468983 -0.460914,-0.364703 -0.860954,-0.982877 -1.313052,-1.823929 -1.466633,-2.725394 -3.461992,-23.253238 -4.605023,-35.009685 -0.137295,-1.398917 -0.261369,-2.677714 -0.365577,-3.779842 2.751189,1.831658 6.073455,2.917499 9.661384,2.954425 3.660566,0.03771 7.07166,-1.028289 9.89924,-2.873115 z"
     id="path794"
     style="stroke-width:0;stroke-dasharray:none;stroke:none" /><path
     d="m 63.996094 6.292969 c -12.417969 0 -24.117188 4.421875 -31.378906 14 c -1.550782 2.046875 -2.402344 7.035156 0.765624 8.863281 l 2.605469 1.441406 c 0.925781 0.535156 2.105469 0.21875 2.640625 -0.707031 c 5.238282 -9.066406 14.617188 -15.617187 25.367188 -15.617187 s 20.132812 6.550781 25.371094 15.617187 c 0.53125 0.925781 1.714843 1.242187 2.636718 0.707031 l 2.457032 -1.25 c 3.722656 -2.148437 2.003906 -7.160156 1.035156 -8.835937 c -7.246094 -9.714844 -19 -14.21875 -31.5 -14.21875 z m 0 0"
     fill="url(#h)"
     id="path130" /><path
     d="m 31.90624704408 42.24606811854 c 0 -17.69531065306 14.3476551163 -32.03905828167 32.04296576937 -32.03905828167 s 32.04296475073 14.34374762861 32.04296475073 32.03905828167"
     fill="none"
     stroke="#77767b"
     stroke-linejoin="bevel"
     stroke-width="2.17852625412"
     id="path132" /><path
     d="m 95.9999905023 42.09372499292 v 16.32812287976"
     fill="none"
     stroke="#70727b"
     stroke-linejoin="bevel"
     stroke-width="2.17852625412"
     id="path134" /><path
     d="m 31.89843410596 42.09372499292 v 16.32812287976"
     fill="none"
     stroke="#70727b"
     stroke-linejoin="bevel"
     stroke-width="2.17852625412"
     id="path136" /><path
     d="m 87.515625 22.558594 c 1.8125 2.183594 3.359375 4.597656 4.578125 7.199218 c 0.585938 -0.523437 1.371094 -0.945312 2.15625 -1.113281 c -1.019531 -2.15625 -2.25 -4.195312 -3.664062 -6.085937 z m 0 0"
     fill="#c64600"
     id="path138" /><path
     d="m 40.585938 22.210938 c -1.878907 2.261718 -3.476563 4.757812 -4.738282 7.449218 c -0.605468 -0.539062 -1.414062 -0.976562 -2.230468 -1.152344 c 1.054687 -2.230468 2.328124 -4.335937 3.789062 -6.296874 z m 0 0"
     fill="#c64600"
     id="path140" /><path
     d="m 63.996094 4.089844 c -12.265625 0 -23.71875 5.8125 -30.972656 15.488281 c 0 0 -3.476563 5.628906 0.84375 8.121094 l 1.378906 0.796875 c 0.949218 0.546875 2.160156 0.222656 2.707031 -0.726563 c 5.378906 -9.308593 15.292969 -15.035156 26.042969 -15.035156 s 20.667968 5.726563 26.042968 15.035156 c 0.546876 0.949219 1.761719 1.273438 2.710938 0.726563 l 1.417969 -0.820313 c 4.132812 -2.234375 0.792969 -8.109375 0.792969 -8.109375 c -7.253907 -9.667968 -18.703126 -15.476562 -30.964844 -15.476562 z m 0 0"
     fill="#ff7800"
     id="path142" /><path
     d="m 63.996094 9.273438 c -14.601563 0 -23.761719 7.527343 -29.933594 18.21875 c -0.046875 0.078124 -0.085938 0.164062 -0.117188 0.253906 l 1.300782 0.75 c 0.949218 0.546875 2.160156 0.222656 2.707031 -0.726563 c 5.378906 -9.308593 15.292969 -15.035156 26.042969 -15.035156 s 20.667968 5.726563 26.042968 15.035156 c 0.546876 0.949219 1.761719 1.273438 2.710938 0.726563 l 1.300781 -0.75 c -0.03125 -0.089844 -0.074219 -0.175782 -0.121093 -0.253906 c -6.171876 -10.691407 -15.328126 -18.21875 -29.933594 -18.21875 z m 0 0"
     fill="#e66100"
     id="path144" /><path
     d="m 40.84375 65.3125 c 0 6.890625 -5.585938 12.476562 -12.480469 12.476562 c -6.890625 0 -12.476562 -5.585937 -12.476562 -12.476562 c 0 -6.894531 5.585937 -12.480469 12.476562 -12.480469 c 6.894531 0 12.480469 5.585938 12.480469 12.480469 z m 0 0"
     fill="#3d3846"
     id="path146" /><path
     d="m 21.226562 55.09375 c -0.140624 0.097656 -0.28125 0.199219 -0.421874 0.300781 c -0.011719 0.042969 -0.019532 0.089844 -0.019532 0.136719 c 0 0.238281 0.195313 0.433594 0.433594 0.433594 c 0.242188 0 0.4375 -0.195313 0.4375 -0.433594 s -0.191406 -0.433594 -0.429688 -0.4375 z m -0.878906 0.871094 c -0.238281 0 -0.433594 0.195312 -0.433594 0.4375 c 0 0.238281 0.195313 0.433594 0.433594 0.433594 c 0.242188 0 0.4375 -0.195313 0.4375 -0.433594 c 0 -0.242188 -0.195312 -0.4375 -0.4375 -0.4375 z m -0.871094 0.871094 c -0.238281 0 -0.433593 0.195312 -0.433593 0.4375 c 0 0.238281 0.195312 0.433593 0.433593 0.433593 c 0.242188 0 0.4375 -0.195312 0.4375 -0.433593 c 0 -0.242188 -0.195312 -0.4375 -0.4375 -0.4375 z m 1.742188 0 c -0.238281 0 -0.433594 0.195312 -0.433594 0.4375 c 0 0.238281 0.195313 0.433593 0.433594 0.433593 c 0.242188 0 0.4375 -0.195312 0.4375 -0.433593 c 0 -0.242188 -0.195312 -0.4375 -0.4375 -0.4375 z m -2.613281 0.871093 c -0.042969 0 -0.089844 0.007813 -0.132813 0.023438 c -0.101562 0.128906 -0.203125 0.261719 -0.300781 0.398437 v 0.015625 c 0 0.242188 0.195313 0.433594 0.433594 0.433594 c 0.242187 0 0.4375 -0.191406 0.4375 -0.433594 c 0 -0.242187 -0.195313 -0.4375 -0.4375 -0.4375 z m 1.742187 0 c -0.238281 0 -0.433594 0.195313 -0.433594 0.4375 c 0 0.242188 0.195313 0.433594 0.433594 0.433594 c 0.242188 0 0.4375 -0.191406 0.4375 -0.433594 c 0 -0.242187 -0.195312 -0.4375 -0.4375 -0.4375 z m -0.871094 0.871094 c -0.238281 0 -0.433593 0.195313 -0.433593 0.4375 s 0.195312 0.4375 0.433593 0.4375 c 0.242188 0 0.4375 -0.195313 0.4375 -0.4375 s -0.195312 -0.4375 -0.4375 -0.4375 z m 1.742188 0 c -0.238281 0 -0.433594 0.195313 -0.433594 0.4375 s 0.195313 0.4375 0.433594 0.4375 c 0.242188 0 0.4375 -0.195313 0.4375 -0.4375 s -0.195312 -0.4375 -0.4375 -0.4375 z m -3.355469 0.019531 c -0.15625 0.234375 -0.304687 0.476563 -0.441406 0.71875 c 0.082031 0.085938 0.195313 0.132813 0.3125 0.136719 c 0.242187 0 0.4375 -0.195313 0.4375 -0.4375 c 0 -0.191406 -0.125 -0.359375 -0.308594 -0.417969 z m 0.742188 0.855469 c -0.238281 0 -0.433594 0.191406 -0.433594 0.433594 c 0 0.242187 0.195313 0.4375 0.433594 0.4375 c 0.242187 0 0.4375 -0.195313 0.4375 -0.4375 c 0 -0.242188 -0.195313 -0.433594 -0.4375 -0.433594 z m 1.742187 0 c -0.238281 0 -0.433594 0.191406 -0.433594 0.433594 c 0 0.242187 0.195313 0.4375 0.433594 0.4375 c 0.242188 0 0.4375 -0.195313 0.4375 -0.4375 c 0 -0.242188 -0.195312 -0.433594 -0.4375 -0.433594 z m -3.101562 0.226563 c -0.109375 0.207031 -0.210938 0.421874 -0.308594 0.636718 c 0.207031 -0.035156 0.363281 -0.21875 0.363281 -0.429687 c 0 -0.074219 -0.019531 -0.144531 -0.054687 -0.207031 z m 0.488281 0.644531 c -0.242187 0 -0.433594 0.195312 -0.433594 0.433593 c 0 0.242188 0.191407 0.4375 0.433594 0.4375 s 0.4375 -0.195312 0.4375 -0.4375 c 0 -0.238281 -0.195313 -0.433593 -0.4375 -0.433593 z m 1.742187 0 c -0.238281 0 -0.433593 0.195312 -0.433593 0.433593 c 0 0.242188 0.195312 0.4375 0.433593 0.4375 c 0.242188 0 0.4375 -0.195312 0.4375 -0.4375 c 0 -0.238281 -0.195312 -0.433593 -0.4375 -0.433593 z m 1.742188 0 c -0.238281 0 -0.433594 0.195312 -0.433594 0.433593 c 0 0.242188 0.195313 0.4375 0.433594 0.4375 c 0.242188 0 0.4375 -0.195312 0.4375 -0.4375 c 0 -0.238281 -0.195312 -0.433593 -0.4375 -0.433593 z m -4.355469 0.871093 c -0.117187 0 -0.226562 0.046876 -0.308593 0.128907 c -0.042969 0.117187 -0.085938 0.234375 -0.125 0.351562 c 0.023437 0.222657 0.210937 0.390625 0.433593 0.390625 c 0.242188 0 0.4375 -0.195312 0.4375 -0.4375 c 0 -0.238281 -0.195312 -0.433594 -0.4375 -0.433594 z m 1.742188 0 c -0.238281 0 -0.433594 0.195313 -0.433594 0.433594 c 0 0.242188 0.195313 0.4375 0.433594 0.4375 c 0.242187 0 0.4375 -0.195312 0.4375 -0.4375 c 0 -0.238281 -0.195313 -0.433594 -0.4375 -0.433594 z m 1.742187 0 c -0.238281 0 -0.433594 0.195313 -0.433594 0.433594 c 0 0.242188 0.195313 0.4375 0.433594 0.4375 c 0.242188 0 0.4375 -0.195312 0.4375 -0.4375 c 0 -0.238281 -0.195312 -0.433594 -0.4375 -0.433594 z m -2.613281 0.871094 c -0.242187 0 -0.433594 0.195313 -0.433594 0.433594 c 0 0.242188 0.191407 0.4375 0.433594 0.4375 s 0.4375 -0.195312 0.4375 -0.4375 c 0 -0.238281 -0.195313 -0.433594 -0.4375 -0.433594 z m 1.742187 0 c -0.238281 0 -0.433593 0.195313 -0.433593 0.433594 c 0 0.242188 0.195312 0.4375 0.433593 0.4375 c 0.242188 0 0.4375 -0.195312 0.4375 -0.4375 c 0 -0.238281 -0.195312 -0.433594 -0.4375 -0.433594 z m 1.742188 0 c -0.238281 0 -0.433594 0.195313 -0.433594 0.433594 c 0 0.242188 0.195313 0.4375 0.433594 0.4375 c 0.242188 0 0.4375 -0.195312 0.4375 -0.4375 c 0 -0.238281 -0.195312 -0.433594 -0.4375 -0.433594 z m -4.917969 0.125 c -0.066406 0.242188 -0.125 0.480469 -0.179687 0.726563 c 0.183594 -0.058594 0.304687 -0.226563 0.304687 -0.417969 c 0 -0.113281 -0.042969 -0.226562 -0.125 -0.308594 z m 0.5625 0.746094 c -0.242187 0 -0.4375 0.195312 -0.4375 0.433594 c 0 0.242187 0.195313 0.4375 0.4375 0.4375 c 0.242188 0 0.4375 -0.195313 0.4375 -0.4375 c 0 -0.238282 -0.195312 -0.433594 -0.4375 -0.433594 z m 1.742188 0 c -0.238281 0 -0.433594 0.195312 -0.433594 0.433594 c 0 0.242187 0.195313 0.4375 0.433594 0.4375 c 0.242187 0 0.4375 -0.195313 0.4375 -0.4375 c 0 -0.238282 -0.195313 -0.433594 -0.4375 -0.433594 z m 1.742187 0 c -0.238281 0 -0.433594 0.195312 -0.433594 0.433594 c 0 0.242187 0.195313 0.4375 0.433594 0.4375 c 0.242188 0 0.4375 -0.195313 0.4375 -0.4375 c 0 -0.238282 -0.195312 -0.433594 -0.4375 -0.433594 z m -4.359375 0.871094 c -0.035156 0.289062 -0.054687 0.574218 -0.070312 0.863281 c 0.023437 0.003906 0.050781 0.007813 0.074219 0.007813 c 0.242187 0 0.433593 -0.195313 0.433593 -0.4375 c 0 -0.238282 -0.191406 -0.433594 -0.433593 -0.433594 z m 1.746094 0 c -0.242187 0 -0.433594 0.195312 -0.433594 0.433594 c 0 0.242187 0.191407 0.4375 0.433594 0.4375 s 0.4375 -0.195313 0.4375 -0.4375 c 0 -0.238282 -0.195313 -0.433594 -0.4375 -0.433594 z m 1.742187 0 c -0.238281 0 -0.433593 0.195312 -0.433593 0.433594 c 0 0.242187 0.195312 0.4375 0.433593 0.4375 c 0.242188 0 0.4375 -0.195313 0.4375 -0.4375 c 0 -0.238282 -0.195312 -0.433594 -0.4375 -0.433594 z m 1.742188 0 c -0.238281 0 -0.433594 0.195312 -0.433594 0.433594 c 0 0.242187 0.195313 0.4375 0.433594 0.4375 c 0.242188 0 0.4375 -0.195313 0.4375 -0.4375 c 0 -0.238282 -0.195312 -0.433594 -0.4375 -0.433594 z m -4.355469 0.871094 c -0.242187 0 -0.4375 0.195312 -0.4375 0.4375 c 0 0.238281 0.195313 0.433593 0.4375 0.433593 c 0.242188 0 0.4375 -0.195312 0.4375 -0.433593 c 0 -0.242188 -0.195312 -0.4375 -0.4375 -0.4375 z m 1.742188 0 c -0.238281 0 -0.433594 0.195312 -0.433594 0.4375 c 0 0.238281 0.195313 0.433593 0.433594 0.433593 c 0.242187 0 0.4375 -0.195312 0.4375 -0.433593 c 0 -0.242188 -0.195313 -0.4375 -0.4375 -0.4375 z m 1.742187 0 c -0.238281 0 -0.433594 0.195312 -0.433594 0.4375 c 0 0.238281 0.195313 0.433593 0.433594 0.433593 c 0.242188 0 0.4375 -0.195312 0.4375 -0.433593 c 0 -0.242188 -0.195312 -0.4375 -0.4375 -0.4375 z m -4.355468 0.871093 c -0.03125 0 -0.066407 0.003907 -0.097657 0.011719 c 0.007813 0.285156 0.023438 0.570312 0.050781 0.859375 h 0.046876 c 0.242187 0 0.433593 -0.195313 0.433593 -0.433594 c 0 -0.242187 -0.191406 -0.4375 -0.433593 -0.4375 z m 1.742187 0 c -0.242187 0 -0.433594 0.195313 -0.433594 0.4375 c 0 0.238281 0.191407 0.433594 0.433594 0.433594 s 0.4375 -0.195313 0.4375 -0.433594 c 0 -0.242187 -0.195313 -0.4375 -0.4375 -0.4375 z m 1.742187 0 c -0.238281 0 -0.433593 0.195313 -0.433593 0.4375 c 0 0.238281 0.195312 0.433594 0.433593 0.433594 c 0.242188 0 0.4375 -0.195313 0.4375 -0.433594 c 0 -0.242187 -0.195312 -0.4375 -0.4375 -0.4375 z m 1.742188 0 c -0.238281 0 -0.433594 0.195313 -0.433594 0.4375 c 0 0.238281 0.195313 0.433594 0.433594 0.433594 c 0.242188 0 0.4375 -0.195313 0.4375 -0.433594 c 0 -0.242187 -0.195312 -0.4375 -0.4375 -0.4375 z m -4.355469 0.871094 c -0.242187 0 -0.4375 0.195313 -0.4375 0.4375 c 0 0.238281 0.195313 0.433594 0.4375 0.433594 c 0.242188 0 0.4375 -0.195313 0.4375 -0.433594 c 0 -0.242187 -0.195312 -0.4375 -0.4375 -0.4375 z m 1.742188 0 c -0.238281 0 -0.433594 0.195313 -0.433594 0.4375 c 0 0.238281 0.195313 0.433594 0.433594 0.433594 c 0.242187 0 0.4375 -0.195313 0.4375 -0.433594 c 0 -0.242187 -0.195313 -0.4375 -0.4375 -0.4375 z m 1.742187 0 c -0.238281 0 -0.433594 0.195313 -0.433594 0.4375 c 0 0.238281 0.195313 0.433594 0.433594 0.433594 c 0.242188 0 0.4375 -0.195313 0.4375 -0.433594 c 0 -0.242187 -0.195312 -0.4375 -0.4375 -0.4375 z m -2.613281 0.871094 c -0.242187 0 -0.433594 0.195312 -0.433594 0.4375 c 0 0.238281 0.191407 0.433593 0.433594 0.433593 s 0.4375 -0.195312 0.4375 -0.433593 c 0 -0.242188 -0.195313 -0.4375 -0.4375 -0.4375 z m 1.742187 0 c -0.238281 0 -0.433593 0.195312 -0.433593 0.4375 c 0 0.238281 0.195312 0.433593 0.433593 0.433593 c 0.242188 0 0.4375 -0.195312 0.4375 -0.433593 c 0 -0.242188 -0.195312 -0.4375 -0.4375 -0.4375 z m 1.742188 0 c -0.238281 0 -0.433594 0.195312 -0.433594 0.4375 c 0 0.238281 0.195313 0.433593 0.433594 0.433593 c 0.242188 0 0.4375 -0.195312 0.4375 -0.433593 c 0 -0.242188 -0.195312 -0.4375 -0.4375 -0.4375 z m -5.167969 0.003906 c 0.046875 0.269531 0.105469 0.539063 0.167969 0.804687 c 0.128906 -0.078124 0.207031 -0.21875 0.207031 -0.371093 c 0 -0.21875 -0.160156 -0.402344 -0.375 -0.433594 z m 0.8125 0.867187 c -0.242187 0 -0.4375 0.195313 -0.4375 0.4375 c 0 0.238282 0.195313 0.433594 0.4375 0.433594 c 0.242188 0 0.4375 -0.195312 0.4375 -0.433594 c 0 -0.242187 -0.195312 -0.4375 -0.4375 -0.4375 z m 1.742188 0 c -0.238281 0 -0.433594 0.195313 -0.433594 0.4375 c 0 0.238282 0.195313 0.433594 0.433594 0.433594 c 0.242187 0 0.4375 -0.195312 0.4375 -0.433594 c 0 -0.242187 -0.195313 -0.4375 -0.4375 -0.4375 z m 1.742187 0 c -0.238281 0 -0.433594 0.195313 -0.433594 0.4375 c 0 0.238282 0.195313 0.433594 0.433594 0.433594 c 0.242188 0 0.4375 -0.195312 0.4375 -0.433594 c 0 -0.242187 -0.195312 -0.4375 -0.4375 -0.4375 z m -2.613281 0.871094 c -0.242187 0 -0.433594 0.195313 -0.433594 0.4375 c 0 0.242188 0.191407 0.4375 0.433594 0.4375 s 0.4375 -0.195312 0.4375 -0.4375 c 0 -0.242187 -0.195313 -0.4375 -0.4375 -0.4375 z m 1.742187 0 c -0.238281 0 -0.433593 0.195313 -0.433593 0.4375 c 0 0.242188 0.195312 0.4375 0.433593 0.4375 c 0.242188 0 0.4375 -0.195312 0.4375 -0.4375 c 0 -0.242187 -0.195312 -0.4375 -0.4375 -0.4375 z m 1.742188 0 c -0.238281 0 -0.433594 0.195313 -0.433594 0.4375 c 0 0.242188 0.195313 0.4375 0.433594 0.4375 c 0.242188 0 0.4375 -0.195312 0.4375 -0.4375 c 0 -0.242187 -0.195312 -0.4375 -0.4375 -0.4375 z m -4.355469 0.875 c -0.03125 0 -0.058593 0 -0.089843 0.007813 c 0.105468 0.261719 0.222656 0.523437 0.347656 0.777343 c 0.113281 -0.082031 0.179687 -0.214843 0.179687 -0.351562 c 0 -0.242188 -0.195312 -0.433594 -0.4375 -0.433594 z m 1.742188 0 c -0.238281 0 -0.433594 0.191406 -0.433594 0.433594 s 0.195313 0.4375 0.433594 0.4375 c 0.242187 0 0.4375 -0.195312 0.4375 -0.4375 s -0.195313 -0.433594 -0.4375 -0.433594 z m 1.742187 0 c -0.238281 0 -0.433594 0.191406 -0.433594 0.433594 s 0.195313 0.4375 0.433594 0.4375 c 0.242188 0 0.4375 -0.195312 0.4375 -0.4375 s -0.195312 -0.433594 -0.4375 -0.433594 z m -2.613281 0.871094 c -0.195313 0 -0.363281 0.128906 -0.417969 0.316406 c 0.097656 0.179688 0.203125 0.363282 0.308594 0.539063 c 0.035156 0.007812 0.074219 0.015625 0.109375 0.015625 c 0.242187 0 0.4375 -0.195313 0.4375 -0.4375 c 0 -0.238282 -0.195313 -0.433594 -0.4375 -0.433594 z m 1.742187 0 c -0.238281 0 -0.433593 0.195312 -0.433593 0.433594 c 0 0.242187 0.195312 0.4375 0.433593 0.4375 c 0.242188 0 0.4375 -0.195313 0.4375 -0.4375 c 0 -0.238282 -0.195312 -0.433594 -0.4375 -0.433594 z m 1.742188 0 c -0.238281 0 -0.433594 0.195312 -0.433594 0.433594 c 0 0.242187 0.195313 0.4375 0.433594 0.4375 c 0.242188 0 0.4375 -0.195313 0.4375 -0.4375 c 0 -0.238282 -0.195312 -0.433594 -0.4375 -0.433594 z m -2.613281 0.871094 c -0.238281 0 -0.433594 0.195312 -0.433594 0.433594 c 0 0.242187 0.195313 0.4375 0.433594 0.4375 c 0.242187 0 0.4375 -0.195313 0.4375 -0.4375 c 0 -0.238282 -0.195313 -0.433594 -0.4375 -0.433594 z m 1.742187 0 c -0.238281 0 -0.433594 0.195312 -0.433594 0.433594 c 0 0.242187 0.195313 0.4375 0.433594 0.4375 c 0.242188 0 0.4375 -0.195313 0.4375 -0.4375 c 0 -0.238282 -0.195312 -0.433594 -0.4375 -0.433594 z m -0.871094 0.871094 c -0.238281 0 -0.433593 0.195312 -0.433593 0.433593 c 0 0.242188 0.195312 0.4375 0.433593 0.4375 c 0.242188 0 0.4375 -0.195312 0.4375 -0.4375 c 0 -0.238281 -0.195312 -0.433593 -0.4375 -0.433593 z m 1.742188 0 c -0.238281 0 -0.433594 0.195312 -0.433594 0.433593 c 0 0.242188 0.195313 0.4375 0.433594 0.4375 c 0.242188 0 0.4375 -0.195312 0.4375 -0.4375 c 0 -0.238281 -0.195312 -0.433593 -0.4375 -0.433593 z m -0.871094 0.871093 c -0.238281 0 -0.433594 0.195313 -0.433594 0.433594 c 0 0.242187 0.195313 0.4375 0.433594 0.4375 c 0.242188 0 0.4375 -0.195313 0.4375 -0.4375 c 0 -0.238281 -0.195312 -0.433594 -0.4375 -0.433594 z m 0.871094 0.871094 c -0.238281 0 -0.433594 0.195313 -0.433594 0.433594 c 0 0.242187 0.195313 0.4375 0.433594 0.4375 c 0.242188 0 0.4375 -0.195313 0.4375 -0.4375 c 0 -0.238281 -0.195312 -0.433594 -0.4375 -0.433594 z m 0 0"
     fill="#241f31"
     id="path148" /><path
     d="m 33.832031 44.949219 c -3.726562 0 -7.445312 1.09375 -10.582031 3.105469 c -1.171875 0.753906 -1.878906 2.050781 -1.878906 3.441406 v 27.375 c 0 1.390625 0.703125 2.6875 1.871094 3.4375 c 3.132812 2.023437 6.855468 3.121094 10.582031 3.128906 h 0.011719 c 4.496093 -0.003906 8.050781 -1.617188 11.519531 -4.476562 c 0.941406 -0.777344 1.484375 -1.933594 1.484375 -3.15625 v -25.226563 c 0 -1.222656 -0.542969 -2.378906 -1.488282 -3.15625 c -3.46875 -2.859375 -7.019531 -4.46875 -11.515624 -4.472656 z m 0 0"
     fill="url(#j)"
     id="path150" /><path
     d="m 37.914062 45.445312 v 39.496094 c 2.699219 -0.679687 5.089844 -2.039062 7.441407 -3.980468 c 0.941406 -0.777344 1.484375 -1.933594 1.484375 -3.15625 v -25.226563 c 0 -1.222656 -0.542969 -2.378906 -1.488282 -3.15625 c -2.351562 -1.9375 -4.742187 -3.296875 -7.4375 -3.976563 z m 0 0"
     fill="url(#l)"
     id="path152" /><g
     clip-path="url(#p)"
     mask="url(#n)"
     transform="matrix(1 0 0 1 -8 -16)"
     id="g156"><path
       d="m 90.224109 7.752846 v 121.498014"
       fill="none"
       stroke="url(#o)"
       stroke-linecap="round"
       stroke-linejoin="bevel"
       stroke-width="5"
       transform="matrix(0.217853 0 0 0.217853 10.485 65.865704)"
       id="path154" /></g><path
     d="m 87.242188 65.3125 c 0 6.890625 5.585937 12.476562 12.476562 12.476562 s 12.480469 -5.585937 12.480469 -12.476562 c 0 -6.894531 -5.589844 -12.480469 -12.480469 -12.480469 s -12.476562 5.585938 -12.476562 12.480469 z m 0 0"
     fill="#3d3846"
     id="path158" /><path
     d="m 106.859375 55.09375 c 0.140625 0.097656 0.28125 0.199219 0.417969 0.300781 c 0.015625 0.042969 0.023437 0.089844 0.023437 0.136719 c 0 0.238281 -0.195312 0.433594 -0.4375 0.433594 c -0.238281 0 -0.433593 -0.195313 -0.433593 -0.433594 s 0.191406 -0.433594 0.429687 -0.4375 z m 0.875 0.871094 c 0.242187 0 0.4375 0.195312 0.4375 0.4375 c 0 0.238281 -0.195313 0.433594 -0.4375 0.433594 c -0.238281 0 -0.433594 -0.195313 -0.433594 -0.433594 c 0 -0.242188 0.195313 -0.4375 0.433594 -0.4375 z m 0.871094 0.871094 c 0.242187 0 0.4375 0.195312 0.4375 0.4375 c 0 0.238281 -0.195313 0.433593 -0.4375 0.433593 c -0.238281 0 -0.433594 -0.195312 -0.433594 -0.433593 c 0 -0.242188 0.195313 -0.4375 0.433594 -0.4375 z m -1.742188 0 c 0.242188 0 0.4375 0.195312 0.4375 0.4375 c 0 0.238281 -0.195312 0.433593 -0.4375 0.433593 c -0.238281 0 -0.433593 -0.195312 -0.433593 -0.433593 c 0 -0.242188 0.195312 -0.4375 0.433593 -0.4375 z m 2.617188 0.871093 c 0.042969 0 0.085937 0.007813 0.128906 0.023438 c 0.105469 0.128906 0.207031 0.261719 0.304687 0.398437 v 0.015625 c 0 0.242188 -0.195312 0.433594 -0.433593 0.433594 c -0.242188 0 -0.4375 -0.191406 -0.4375 -0.433594 c 0 -0.242187 0.195312 -0.4375 0.4375 -0.4375 z m -1.746094 0 c 0.242187 0 0.4375 0.195313 0.4375 0.4375 c 0 0.238281 -0.195313 0.433594 -0.4375 0.433594 c -0.238281 0 -0.433594 -0.195313 -0.433594 -0.433594 c 0 -0.242187 0.195313 -0.4375 0.433594 -0.4375 z m 0.871094 0.871094 c 0.242187 0 0.4375 0.195313 0.4375 0.4375 s -0.195313 0.4375 -0.4375 0.4375 c -0.238281 0 -0.433594 -0.195313 -0.433594 -0.4375 s 0.195313 -0.4375 0.433594 -0.4375 z m -1.742188 0 c 0.242188 0 0.4375 0.195313 0.4375 0.4375 s -0.195312 0.4375 -0.4375 0.4375 c -0.238281 0 -0.433593 -0.195313 -0.433593 -0.4375 s 0.195312 -0.4375 0.433593 -0.4375 z m 3.359375 0.019531 c 0.15625 0.234375 0.300782 0.476563 0.441406 0.71875 c -0.082031 0.085938 -0.195312 0.132813 -0.3125 0.136719 c -0.242187 0 -0.4375 -0.195313 -0.4375 -0.4375 c 0 -0.191406 0.125 -0.359375 0.308594 -0.417969 z m -0.742187 0.855469 c 0.238281 0 0.433593 0.191406 0.433593 0.433594 c 0 0.242187 -0.195312 0.4375 -0.433593 0.4375 c -0.242188 0 -0.4375 -0.195313 -0.4375 -0.4375 c 0 -0.242188 0.195312 -0.433594 0.4375 -0.433594 z m -1.746094 0 c 0.242187 0 0.4375 0.191406 0.4375 0.433594 c 0 0.242187 -0.195313 0.4375 -0.4375 0.4375 c -0.238281 0 -0.433594 -0.195313 -0.433594 -0.4375 c 0 -0.242188 0.195313 -0.433594 0.433594 -0.433594 z m 3.105469 0.226563 c 0.109375 0.207031 0.210937 0.421874 0.308594 0.636718 c -0.210938 -0.035156 -0.363282 -0.21875 -0.363282 -0.429687 c 0 -0.074219 0.019532 -0.144531 0.054688 -0.207031 z m -0.488282 0.644531 c 0.238282 0 0.433594 0.195312 0.433594 0.433593 c 0 0.242188 -0.195312 0.4375 -0.433594 0.4375 c -0.242187 0 -0.4375 -0.195312 -0.4375 -0.4375 c 0 -0.238281 0.195313 -0.433593 0.4375 -0.433593 z m -1.746093 0 c 0.242187 0 0.4375 0.195312 0.4375 0.433593 c 0 0.242188 -0.195313 0.4375 -0.4375 0.4375 c -0.238281 0 -0.433594 -0.195312 -0.433594 -0.4375 c 0 -0.238281 0.195313 -0.433593 0.433594 -0.433593 z m -1.742188 0 c 0.242188 0 0.4375 0.195312 0.4375 0.433593 c 0 0.242188 -0.195312 0.4375 -0.4375 0.4375 c -0.238281 0 -0.433593 -0.195312 -0.433593 -0.4375 c 0 -0.238281 0.195312 -0.433593 0.433593 -0.433593 z m 4.359375 0.871093 c 0.113282 0 0.226563 0.046876 0.308594 0.128907 c 0.042969 0.117187 0.082031 0.234375 0.121094 0.351562 c -0.023438 0.222657 -0.207032 0.390625 -0.429688 0.390625 c -0.242187 0 -0.4375 -0.195312 -0.4375 -0.4375 c 0 -0.238281 0.195313 -0.433594 0.4375 -0.433594 z m -1.742187 0 c 0.238281 0 0.433593 0.195313 0.433593 0.433594 c 0 0.242188 -0.195312 0.4375 -0.433593 0.4375 c -0.242188 0 -0.4375 -0.195312 -0.4375 -0.4375 c 0 -0.238281 0.195312 -0.433594 0.4375 -0.433594 z m -1.746094 0 c 0.242187 0 0.4375 0.195313 0.4375 0.433594 c 0 0.242188 -0.195313 0.4375 -0.4375 0.4375 c -0.238281 0 -0.433594 -0.195312 -0.433594 -0.4375 c 0 -0.238281 0.195313 -0.433594 0.433594 -0.433594 z m 2.617187 0.871094 c 0.238282 0 0.433594 0.195313 0.433594 0.433594 c 0 0.242188 -0.195312 0.4375 -0.433594 0.4375 c -0.242187 0 -0.4375 -0.195312 -0.4375 -0.4375 c 0 -0.238281 0.195313 -0.433594 0.4375 -0.433594 z m -1.746093 0 c 0.242187 0 0.4375 0.195313 0.4375 0.433594 c 0 0.242188 -0.195313 0.4375 -0.4375 0.4375 c -0.238281 0 -0.433594 -0.195312 -0.433594 -0.4375 c 0 -0.238281 0.195313 -0.433594 0.433594 -0.433594 z m -1.742188 0 c 0.242188 0 0.4375 0.195313 0.4375 0.433594 c 0 0.242188 -0.195312 0.4375 -0.4375 0.4375 c -0.238281 0 -0.433593 -0.195312 -0.433593 -0.4375 c 0 -0.238281 0.195312 -0.433594 0.433593 -0.433594 z m 4.921875 0.125 c 0.066406 0.242188 0.125 0.480469 0.175782 0.726563 c -0.179688 -0.058594 -0.304688 -0.226563 -0.304688 -0.417969 c 0 -0.113281 0.046875 -0.226562 0.128906 -0.308594 z m -0.5625 0.746094 c 0.238282 0 0.433594 0.195312 0.433594 0.433594 c 0 0.242187 -0.195312 0.4375 -0.433594 0.4375 c -0.242187 0 -0.4375 -0.195313 -0.4375 -0.4375 c 0 -0.238282 0.195313 -0.433594 0.4375 -0.433594 z m -1.742187 0 c 0.238281 0 0.433593 0.195312 0.433593 0.433594 c 0 0.242187 -0.195312 0.4375 -0.433593 0.4375 c -0.242188 0 -0.4375 -0.195313 -0.4375 -0.4375 c 0 -0.238282 0.195312 -0.433594 0.4375 -0.433594 z m -1.746094 0 c 0.242187 0 0.4375 0.195312 0.4375 0.433594 c 0 0.242187 -0.195313 0.4375 -0.4375 0.4375 c -0.238281 0 -0.433594 -0.195313 -0.433594 -0.4375 c 0 -0.238282 0.195313 -0.433594 0.433594 -0.433594 z m 4.363281 0.871094 c 0.03125 0.289062 0.054688 0.574218 0.066406 0.863281 c -0.023437 0.003906 -0.046874 0.007813 -0.070312 0.007813 c -0.242188 0 -0.4375 -0.195313 -0.4375 -0.4375 c 0 -0.238282 0.195312 -0.433594 0.4375 -0.433594 z m -1.746094 0 c 0.238282 0 0.433594 0.195312 0.433594 0.433594 c 0 0.242187 -0.195312 0.4375 -0.433594 0.4375 c -0.242187 0 -0.4375 -0.195313 -0.4375 -0.4375 c 0 -0.238282 0.195313 -0.433594 0.4375 -0.433594 z m -1.746093 0 c 0.242187 0 0.4375 0.195312 0.4375 0.433594 c 0 0.242187 -0.195313 0.4375 -0.4375 0.4375 c -0.238281 0 -0.433594 -0.195313 -0.433594 -0.4375 c 0 -0.238282 0.195313 -0.433594 0.433594 -0.433594 z m -1.742188 0 c 0.242188 0 0.4375 0.195312 0.4375 0.433594 c 0 0.242187 -0.195312 0.4375 -0.4375 0.4375 c -0.238281 0 -0.433593 -0.195313 -0.433593 -0.4375 c 0 -0.238282 0.195312 -0.433594 0.433593 -0.433594 z m 4.359375 0.871094 c 0.238282 0 0.433594 0.195312 0.433594 0.4375 c 0 0.238281 -0.195312 0.433593 -0.433594 0.433593 c -0.242187 0 -0.4375 -0.195312 -0.4375 -0.433593 c 0 -0.242188 0.195313 -0.4375 0.4375 -0.4375 z m -1.742187 0 c 0.238281 0 0.433593 0.195312 0.433593 0.4375 c 0 0.238281 -0.195312 0.433593 -0.433593 0.433593 c -0.242188 0 -0.4375 -0.195312 -0.4375 -0.433593 c 0 -0.242188 0.195312 -0.4375 0.4375 -0.4375 z m -1.746094 0 c 0.242187 0 0.4375 0.195312 0.4375 0.4375 c 0 0.238281 -0.195313 0.433593 -0.4375 0.433593 c -0.238281 0 -0.433594 -0.195312 -0.433594 -0.433593 c 0 -0.242188 0.195313 -0.4375 0.433594 -0.4375 z m 4.359375 0.871093 c 0.03125 0 0.0625 0.003907 0.09375 0.011719 c -0.003906 0.285156 -0.023438 0.570312 -0.046875 0.859375 c -0.015625 0 -0.03125 0 -0.046875 0 c -0.242188 0 -0.4375 -0.195313 -0.4375 -0.433594 c 0 -0.242187 0.195312 -0.4375 0.4375 -0.4375 z m -1.742188 0 c 0.238282 0 0.433594 0.195313 0.433594 0.4375 c 0 0.238281 -0.195312 0.433594 -0.433594 0.433594 c -0.242187 0 -0.4375 -0.195313 -0.4375 -0.433594 c 0 -0.242187 0.195313 -0.4375 0.4375 -0.4375 z m -1.746093 0 c 0.242187 0 0.4375 0.195313 0.4375 0.4375 c 0 0.238281 -0.195313 0.433594 -0.4375 0.433594 c -0.238281 0 -0.433594 -0.195313 -0.433594 -0.433594 c 0 -0.242187 0.195313 -0.4375 0.433594 -0.4375 z m -1.742188 0 c 0.242188 0 0.4375 0.195313 0.4375 0.4375 c 0 0.238281 -0.195312 0.433594 -0.4375 0.433594 c -0.238281 0 -0.433593 -0.195313 -0.433593 -0.433594 c 0 -0.242187 0.195312 -0.4375 0.433593 -0.4375 z m 4.359375 0.871094 c 0.238282 0 0.433594 0.195313 0.433594 0.4375 c 0 0.238281 -0.195312 0.433594 -0.433594 0.433594 c -0.242187 0 -0.4375 -0.195313 -0.4375 -0.433594 c 0 -0.242187 0.195313 -0.4375 0.4375 -0.4375 z m -1.742187 0 c 0.238281 0 0.433593 0.195313 0.433593 0.4375 c 0 0.238281 -0.195312 0.433594 -0.433593 0.433594 c -0.242188 0 -0.4375 -0.195313 -0.4375 -0.433594 c 0 -0.242187 0.195312 -0.4375 0.4375 -0.4375 z m -1.746094 0 c 0.242187 0 0.4375 0.195313 0.4375 0.4375 c 0 0.238281 -0.195313 0.433594 -0.4375 0.433594 c -0.238281 0 -0.433594 -0.195313 -0.433594 -0.433594 c 0 -0.242187 0.195313 -0.4375 0.433594 -0.4375 z m 2.617187 0.871094 c 0.238282 0 0.433594 0.195312 0.433594 0.4375 c 0 0.238281 -0.195312 0.433593 -0.433594 0.433593 c -0.242187 0 -0.4375 -0.195312 -0.4375 -0.433593 c 0 -0.242188 0.195313 -0.4375 0.4375 -0.4375 z m -1.746093 0 c 0.242187 0 0.4375 0.195312 0.4375 0.4375 c 0 0.238281 -0.195313 0.433593 -0.4375 0.433593 c -0.238281 0 -0.433594 -0.195312 -0.433594 -0.433593 c 0 -0.242188 0.195313 -0.4375 0.433594 -0.4375 z m -1.742188 0 c 0.242188 0 0.4375 0.195312 0.4375 0.4375 c 0 0.238281 -0.195312 0.433593 -0.4375 0.433593 c -0.238281 0 -0.433593 -0.195312 -0.433593 -0.433593 c 0 -0.242188 0.195312 -0.4375 0.433593 -0.4375 z m 5.167969 0.003906 c -0.046875 0.269531 -0.101562 0.539063 -0.164062 0.804687 c -0.128907 -0.078124 -0.210938 -0.21875 -0.210938 -0.371093 c 0 -0.21875 0.160156 -0.402344 0.375 -0.433594 z m -0.808594 0.867187 c 0.238282 0 0.433594 0.195313 0.433594 0.4375 c 0 0.238282 -0.195312 0.433594 -0.433594 0.433594 c -0.242187 0 -0.4375 -0.195312 -0.4375 -0.433594 c 0 -0.242187 0.195313 -0.4375 0.4375 -0.4375 z m -1.742187 0 c 0.238281 0 0.433593 0.195313 0.433593 0.4375 c 0 0.238282 -0.195312 0.433594 -0.433593 0.433594 c -0.242188 0 -0.4375 -0.195312 -0.4375 -0.433594 c 0 -0.242187 0.195312 -0.4375 0.4375 -0.4375 z m -1.746094 0 c 0.242187 0 0.4375 0.195313 0.4375 0.4375 c 0 0.238282 -0.195313 0.433594 -0.4375 0.433594 c -0.238281 0 -0.433594 -0.195312 -0.433594 -0.433594 c 0 -0.242187 0.195313 -0.4375 0.433594 -0.4375 z m 2.617187 0.871094 c 0.238282 0 0.433594 0.195313 0.433594 0.4375 c 0 0.242188 -0.195312 0.4375 -0.433594 0.4375 c -0.242187 0 -0.4375 -0.195312 -0.4375 -0.4375 c 0 -0.242187 0.195313 -0.4375 0.4375 -0.4375 z m -1.746093 0 c 0.242187 0 0.4375 0.195313 0.4375 0.4375 c 0 0.242188 -0.195313 0.4375 -0.4375 0.4375 c -0.238281 0 -0.433594 -0.195312 -0.433594 -0.4375 c 0 -0.242187 0.195313 -0.4375 0.433594 -0.4375 z m -1.742188 0 c 0.242188 0 0.4375 0.195313 0.4375 0.4375 c 0 0.242188 -0.195312 0.4375 -0.4375 0.4375 c -0.238281 0 -0.433593 -0.195312 -0.433593 -0.4375 c 0 -0.242187 0.195312 -0.4375 0.433593 -0.4375 z m 4.359375 0.875 c 0.027344 0 0.058594 0 0.089844 0.007813 c -0.109375 0.261719 -0.222656 0.523437 -0.347656 0.777343 c -0.113282 -0.082031 -0.179688 -0.214843 -0.179688 -0.351562 c 0 -0.242188 0.195313 -0.433594 0.4375 -0.433594 z m -1.742187 0 c 0.238281 0 0.433593 0.191406 0.433593 0.433594 s -0.195312 0.4375 -0.433593 0.4375 c -0.242188 0 -0.4375 -0.195312 -0.4375 -0.4375 s 0.195312 -0.433594 0.4375 -0.433594 z m -1.746094 0 c 0.242187 0 0.4375 0.191406 0.4375 0.433594 s -0.195313 0.4375 -0.4375 0.4375 c -0.238281 0 -0.433594 -0.195312 -0.433594 -0.4375 s 0.195313 -0.433594 0.433594 -0.433594 z m 2.617187 0.871094 c 0.191407 0 0.363282 0.128906 0.417969 0.316406 c -0.101562 0.179688 -0.203125 0.363282 -0.3125 0.539063 c -0.035156 0.007812 -0.070312 0.015625 -0.105469 0.015625 c -0.242187 0 -0.4375 -0.195313 -0.4375 -0.4375 c 0 -0.238282 0.195313 -0.433594 0.4375 -0.433594 z m -1.746093 0 c 0.242187 0 0.4375 0.195312 0.4375 0.433594 c 0 0.242187 -0.195313 0.4375 -0.4375 0.4375 c -0.238281 0 -0.433594 -0.195313 -0.433594 -0.4375 c 0 -0.238282 0.195313 -0.433594 0.433594 -0.433594 z m -1.742188 0 c 0.242188 0 0.4375 0.195312 0.4375 0.433594 c 0 0.242187 -0.195312 0.4375 -0.4375 0.4375 c -0.238281 0 -0.433593 -0.195313 -0.433593 -0.4375 c 0 -0.238282 0.195312 -0.433594 0.433593 -0.433594 z m 2.617188 0.871094 c 0.238281 0 0.433593 0.195312 0.433593 0.433594 c 0 0.242187 -0.195312 0.4375 -0.433593 0.4375 c -0.242188 0 -0.4375 -0.195313 -0.4375 -0.4375 c 0 -0.238282 0.195312 -0.433594 0.4375 -0.433594 z m -1.746094 0 c 0.242187 0 0.4375 0.195312 0.4375 0.433594 c 0 0.242187 -0.195313 0.4375 -0.4375 0.4375 c -0.238281 0 -0.433594 -0.195313 -0.433594 -0.4375 c 0 -0.238282 0.195313 -0.433594 0.433594 -0.433594 z m 0.871094 0.871094 c 0.242187 0 0.4375 0.195312 0.4375 0.433593 c 0 0.242188 -0.195313 0.4375 -0.4375 0.4375 c -0.238281 0 -0.433594 -0.195312 -0.433594 -0.4375 c 0 -0.238281 0.195313 -0.433593 0.433594 -0.433593 z m -1.742188 0 c 0.242188 0 0.4375 0.195312 0.4375 0.433593 c 0 0.242188 -0.195312 0.4375 -0.4375 0.4375 c -0.238281 0 -0.433593 -0.195312 -0.433593 -0.4375 c 0 -0.238281 0.195312 -0.433593 0.433593 -0.433593 z m 0.871094 0.871093 c 0.242187 0 0.4375 0.195313 0.4375 0.433594 c 0 0.242187 -0.195313 0.4375 -0.4375 0.4375 c -0.238281 0 -0.433594 -0.195313 -0.433594 -0.4375 c 0 -0.238281 0.195313 -0.433594 0.433594 -0.433594 z m -0.871094 0.871094 c 0.242188 0 0.4375 0.195313 0.4375 0.433594 c 0 0.242187 -0.195312 0.4375 -0.4375 0.4375 c -0.238281 0 -0.433593 -0.195313 -0.433593 -0.4375 c 0 -0.238281 0.195312 -0.433594 0.433593 -0.433594 z m 0 0"
     fill="#241f31"
     id="path160" /><path
     d="m 94.25 44.949219 c 3.726562 0 7.449219 1.09375 10.582031 3.105469 c 1.171875 0.753906 1.882813 2.050781 1.882813 3.441406 v 27.375 c 0 1.390625 -0.707032 2.6875 -1.875 3.4375 c -3.132813 2.023437 -6.851563 3.121094 -10.582032 3.128906 c -0.003906 0 -0.007812 0 -0.011718 0 c -4.496094 -0.003906 -8.046875 -1.617188 -11.515625 -4.476562 c -0.941407 -0.777344 -1.488281 -1.933594 -1.488281 -3.15625 v -25.226563 c 0 -1.222656 0.546874 -2.378906 1.492187 -3.15625 c 3.46875 -2.859375 7.019531 -4.46875 11.515625 -4.472656 z m 0 0"
     fill="url(#q)"
     id="path162" /><path
     d="m 90.167969 45.445312 v 39.496094 c -2.695313 -0.679687 -5.085938 -2.039062 -7.4375 -3.980468 c -0.941407 -0.777344 -1.488281 -1.933594 -1.488281 -3.15625 v -25.226563 c 0 -1.222656 0.546874 -2.378906 1.488281 -3.15625 c 2.351562 -1.9375 4.742187 -3.296875 7.4375 -3.976563 z m 0 0"
     fill="url(#r)"
     id="path164" /><g
     clip-path="url(#t)"
     mask="url(#s)"
     transform="matrix(1 0 0 1 -8 -16)"
     id="g168"><path
       d="m 90.236449 7.752855 v 121.498014"
       fill="none"
       stroke="url(#o)"
       stroke-linecap="round"
       stroke-linejoin="bevel"
       stroke-width="5"
       transform="matrix(-0.217853 0 0 0.217853 133.599719 65.865702)"
       id="path166" /></g><path
     d="M 101.95729,87.01157 V 91.8475"
     fill="none"
     stroke="#9a9996"
     stroke-linecap="round"
     stroke-width="2.06479"
     id="path176" /><path
     d="m 99 82 c 0 1.65625 -1.34375 3 -3 3 s -3 -1.34375 -3 -3 s 1.34375 -3 3 -3 s 3 1.34375 3 3 z m 0 0"
     fill="url(#w)"
     id="path178" /><path
     d="m 96 82 v 7 c 0 3.867188 -3.132812 7 -7 7 h -2"
     fill="none"
     stroke="#c0bfbc"
     stroke-linecap="round"
     stroke-width="2"
     id="path180" /><g
     fill="none"
     id="g208"
     transform="matrix(1.1019952,0,0,-0.96718763,6.0837054,184.69752)"><path
       d="M 71,93 V 73 c 0,-4.96875 -4.03125,-9 -9,-9 -5.523438,0 -10,4.476562 -10,10 v 8"
       stroke="#c0bfbc"
       stroke-linecap="round"
       stroke-width="2"
       id="path192" /><path
       d="M 83,101 V 93"
       stroke="#9a9996"
       stroke-linecap="round"
       stroke-width="2"
       id="path194" /><path
       d="M 87,101 83,93"
       stroke="#c0bfbc"
       stroke-linecap="round"
       stroke-width="2"
       id="path196" /><path
       d="M 79,101 V 93"
       stroke="#9a9996"
       stroke-linecap="round"
       stroke-width="2"
       id="path198" /><path
       d="M 83,101 79,93"
       stroke="#c0bfbc"
       stroke-linecap="round"
       stroke-width="2"
       id="path200" /><path
       d="M 75,101 V 93"
       stroke="#9a9996"
       stroke-linecap="round"
       stroke-width="2"
       id="path202" /><path
       d="M 79,101 75,93"
       stroke="#c0bfbc"
       stroke-linecap="round"
       stroke-width="2"
       id="path204" /><path
       d="M 75,101 71,93"
       stroke="#c0bfbc"
       stroke-linecap="round"
       stroke-width="2"
       id="path206" /></g><style
     type="text/css"
     id="style565">.st0{fill-rule:evenodd;clip-rule:evenodd;}</style><path
     style="fill:url(#linearGradient1678);fill-opacity:1;stroke:none;stroke-width:77.3783;stroke-linecap:round;stroke-linejoin:round;stroke-dasharray:none;paint-order:markers stroke fill"
     d="m 61.186761,100.43346 c -0.24945,-0.0503 -0.640159,-0.20312 -0.868243,-0.33948 C 59.57862,99.651639 58.504002,98.133711 58.143366,97.021525 57.212454,94.150636 56.023986,86.80304 54.557959,74.855076 53.866677,69.221213 52.491837,57.172008 52.535941,57.13396 c 0.01767,-0.01526 0.312218,0.124894 0.654537,0.31143 3.749518,2.043189 9.154422,3.04625 13.894999,2.578682 2.959883,-0.291936 6.286647,-1.257158 8.771053,-2.54482 l 0.6033,-0.312689 -0.06473,0.329992 c -0.0356,0.181496 -0.32131,2.267722 -0.634914,4.636057 -2.510599,18.960074 -4.054274,28.282814 -5.503833,33.23938 -0.85766,2.932647 -2.036958,4.682718 -3.388881,5.029068 -0.646177,0.16555 -4.900874,0.18981 -5.680716,0.0324 z"
     id="path1639" /></svg>
